<?xml version="1.0" encoding="UTF-8"?>
<svg version="1.1" xmlns="http://www.w3.org/2000/svg" width="500" height="500">
<path d="M0 0 C1.53986572 -0.01029488 1.53986572 -0.01029488 3.11083984 -0.02079773 C6.5011176 -0.03908559 9.89093354 -0.03522563 13.28125 -0.02954102 C15.63867341 -0.0341015 17.99609549 -0.03940667 20.35351562 -0.04542542 C25.29302371 -0.05436018 30.23237015 -0.0519287 35.171875 -0.04199219 C41.50399428 -0.03049589 47.83555646 -0.05072285 54.16760254 -0.07990932 C59.03519234 -0.09824727 63.902648 -0.09798373 68.77026367 -0.0922718 C71.10506981 -0.09211833 73.43988488 -0.09818417 75.7746582 -0.11056328 C79.03762884 -0.12542735 82.29956201 -0.11482944 85.5625 -0.09765625 C87.01052002 -0.1121582 87.01052002 -0.1121582 88.48779297 -0.12695312 C92.7159678 -0.08031463 95.1842609 0.06523089 98.91992188 2.18540955 C100.78125 4.40405273 100.78125 4.40405273 100.78125 8.40405273 C99.09375 10.11499023 99.09375 10.11499023 96.78125 11.77905273 C95.96527344 12.37588867 95.14929688 12.97272461 94.30859375 13.58764648 C93.47457031 14.18706055 92.64054687 14.78647461 91.78125 15.40405273 C90.30109339 16.548607 88.82184342 17.69433527 87.34375 18.84155273 C84.03190274 21.40405273 84.03190274 21.40405273 81.78125 21.40405273 C81.78125 22.06405273 81.78125 22.72405273 81.78125 23.40405273 C80.27734375 24.73608398 80.27734375 24.73608398 78.21875 26.21655273 C77.49429688 26.7437793 76.76984375 27.27100586 76.0234375 27.81420898 C74.5948013 28.82719667 73.16284299 29.83552683 71.7265625 30.83764648 C68.21414076 33.11545138 68.21414076 33.11545138 65.78125 36.40405273 C65.12125 36.40405273 64.46125 36.40405273 63.78125 36.40405273 C63.4132459 43.20169482 63.4132459 43.20169482 65.78125 49.40405273 C67.56760827 50.82323806 69.38708419 52.07954477 71.3203125 53.29077148 C71.80242187 53.6581543 72.28453125 54.02553711 72.78125 54.40405273 C72.78125 55.06405273 72.78125 55.72405273 72.78125 56.40405273 C73.49023438 56.63866211 74.19921875 56.87327148 74.9296875 57.11499023 C78.30467943 58.64067152 80.61396764 60.59803601 83.40625 63.02905273 C88.98488945 67.81700508 94.76896702 72.16705016 100.78125 76.40405273 C100.46875 78.77905273 100.46875 78.77905273 99.78125 81.40405273 C96.76126518 83.41737595 96.01368593 83.67148501 92.59751892 83.81221008 C91.76294694 83.85009486 90.92837496 83.88797964 90.06851292 83.92701244 C89.16926059 83.95722138 88.27000826 83.98743032 87.34350586 84.01855469 C86.40594672 84.05608258 85.46838758 84.09361048 84.50241756 84.13227558 C74.93092249 84.48859596 65.36228529 84.56792043 55.78515625 84.57202148 C53.96866329 84.57524848 52.15217057 84.57861353 50.3356781 84.58210754 C46.5788411 84.58801598 42.82202685 84.58995542 39.06518555 84.58935547 C34.26058139 84.58925264 29.45612102 84.60306448 24.65155125 84.62012768 C20.92233101 84.63123866 17.19314616 84.63327519 13.46391106 84.63274574 C11.69094267 84.63392104 9.91797323 84.63831739 8.14502144 84.64607811 C5.67933921 84.65588875 3.21397854 84.65299916 0.74829102 84.64697266 C-0.33403053 84.65540192 -0.33403053 84.65540192 -1.43821716 84.66400146 C-7.31327339 84.62756233 -11.54662937 83.85322395 -16.03125 79.96655273 C-19.35005793 76.0788063 -19.3526165 73.14316111 -19.39575195 68.19189453 C-19.40858719 66.9101384 -19.42142242 65.62838226 -19.43464661 64.30778503 C-19.44281445 62.90628446 -19.4502581 61.5047795 -19.45703125 60.10327148 C-19.46110678 59.39639505 -19.4651823 58.68951862 -19.46938133 57.96122169 C-19.49022402 54.2195935 -19.50453339 50.47800178 -19.51391602 46.73632812 C-19.52497589 42.87937397 -19.55937522 39.02299747 -19.59908772 35.16624737 C-19.62528006 32.19359797 -19.63361012 29.2210857 -19.63719749 26.24833107 C-19.64205687 24.82700513 -19.6536525 23.40568504 -19.67223549 21.98447227 C-19.69667746 19.99125531 -19.69323717 17.99775624 -19.6887207 16.00439453 C-19.69752007 14.30587593 -19.69752007 14.30587593 -19.70649719 12.57304382 C-18.95843954 7.7127636 -16.76498827 4.75872097 -13.10742188 1.55430603 C-8.75927992 -0.17710025 -4.63969303 -0.02163602 0 0 Z " fill="#539006" transform="translate(194.21875,187.595947265625)"/>
<path d="M0 0 C2.89773804 2.89773804 2.26048584 5.00733651 2.2746582 9.06420898 C2.27976913 9.79119995 2.28488007 10.51819092 2.29014587 11.26721191 C2.30407695 13.67692231 2.30308247 16.08634781 2.30078125 18.49609375 C2.30466635 20.16756802 2.30900064 21.83904131 2.31376648 23.51051331 C2.32123631 27.0168884 2.32093199 30.52316283 2.31567383 34.02954102 C2.30987916 38.52681168 2.32680621 43.02367052 2.3500185 47.52087307 C2.36473845 50.9738049 2.36562991 54.42663716 2.36250877 57.8795948 C2.3630229 59.53782021 2.36827768 61.19605106 2.37832069 62.85424614 C2.39063401 65.17190303 2.38392477 67.48875287 2.37231445 69.80639648 C2.37294388 71.12606918 2.3735733 72.44574188 2.3742218 73.80540466 C2 77 2 77 0.6837616 78.95350647 C-1 80 -1 80 -4.3125 79.9375 C-8.29322702 78.92545076 -10.8115357 77.56632492 -14 75 C-14 74.34 -14 73.68 -14 73 C-14.66644531 72.79761719 -15.33289063 72.59523438 -16.01953125 72.38671875 C-20.12375147 70.47715364 -23.2447789 67.71984051 -26.6875 64.8125 C-32.08760385 60.32004422 -37.48042017 56.09906913 -43.375 52.26953125 C-43.91125 51.85058594 -44.4475 51.43164062 -45 51 C-45 50.34 -45 49.68 -45 49 C-45.53625 48.7525 -46.0725 48.505 -46.625 48.25 C-49.63591723 46.66530672 -52.3295937 45.12418683 -55 43 C-55.3671875 40.55859375 -55.3671875 40.55859375 -55 38 C-53.7421875 36.3671875 -53.7421875 36.3671875 -51.875 34.875 C-50.79605469 33.99714844 -50.79605469 33.99714844 -49.6953125 33.1015625 C-48.80585938 32.40804687 -47.91640625 31.71453125 -47 31 C-45.83015975 30.07102911 -44.66092997 29.14128913 -43.4921875 28.2109375 C-40.50945057 25.84612567 -37.51809503 23.49317072 -34.50585938 21.16601562 C-33.23023415 20.17827469 -31.96543787 19.176573 -30.703125 18.171875 C-29 17 -29 17 -27 17 C-27 16.34 -27 15.68 -27 15 C-24.68487206 13.07072672 -22.27613056 11.31392964 -19.83911133 9.54321289 C-16.70400269 7.26033105 -13.67594018 4.90723656 -10.6875 2.4375 C-7.12906582 -0.24432618 -4.48837632 -0.71814021 0 0 Z " fill="#528F03" transform="translate(323,190)"/>
<path d="M0 0 C2.72417549 0.00545132 5.44819215 -0.00003609 8.17236328 -0.00634766 C9.93147822 -0.00568815 11.69059307 -0.00440965 13.44970703 -0.00244141 C14.25079895 -0.00446564 15.05189087 -0.00648987 15.8772583 -0.00857544 C28.34692284 0.0432119 28.34692284 0.0432119 31.28955078 2.98583984 C31.72912109 3.75541016 32.16869141 4.52498047 32.62158203 5.31787109 C33.3428125 6.54183594 33.3428125 6.54183594 34.07861328 7.79052734 C34.52591797 8.56267578 34.97322266 9.33482422 35.43408203 10.13037109 C36.60970703 11.67724609 36.60970703 11.67724609 37.80908203 13.25537109 C39.81741637 16.808578 39.89804432 19.10936456 39.43408203 23.13037109 C37.10213816 25.46231496 36.60692767 25.40637644 33.44482422 25.54003906 C32.62121399 25.57815704 31.79760376 25.61627502 30.94903564 25.6555481 C30.0520697 25.68591156 29.15510376 25.71627502 28.23095703 25.74755859 C26.8287088 25.80385941 26.8287088 25.80385941 25.39813232 25.86129761 C15.78625017 26.21482408 6.17508876 26.28205242 -3.44238281 26.26074219 C-6.328666 26.25534727 -9.21479546 26.26075066 -12.10107422 26.26708984 C-20.85151392 26.27137289 -29.59085245 26.18580426 -38.33154297 25.74755859 C-39.0400238 25.71719513 -39.74850464 25.68683167 -40.47845459 25.6555481 C-45.32712759 25.36916148 -45.32712759 25.36916148 -47.56591797 23.13037109 C-48.35681422 16.91070153 -46.55808665 13.63705428 -43.12841797 8.75537109 C-42.70753906 8.12759766 -42.28666016 7.49982422 -41.85302734 6.85302734 C-38.87224064 2.43669377 -38.87224064 2.43669377 -37.56591797 1.13037109 C-34.81496599 0.88561221 -32.08871599 0.70663553 -29.33154297 0.57568359 C-28.06035614 0.5126152 -28.06035614 0.5126152 -26.76348877 0.44827271 C-17.84311925 0.04170692 -8.92829736 -0.02127734 0 0 Z " fill="#59930E" transform="translate(246.56591796875,152.86962890625)"/>
<path d="M0 0 C1.71310396 2.47448349 2.72902739 4.33151939 3.8125 7.0625 C4.09802734 7.70638672 4.38355469 8.35027344 4.67773438 9.01367188 C6.63958882 13.57919392 7.89394734 18.16034518 9 23 C9.66 23 10.32 23 11 23 C11.226875 22.071875 11.45375 21.14375 11.6875 20.1875 C13.19825384 14.88907046 15.55261677 9.92381552 18 5 C18.64775391 3.6078125 18.64775391 3.6078125 19.30859375 2.1875 C21 0 21 0 23.6640625 -0.5234375 C25.12972656 -0.44996094 25.12972656 -0.44996094 26.625 -0.375 C28.09839844 -0.32472656 28.09839844 -0.32472656 29.6015625 -0.2734375 C32 0 32 0 33 1 C33.101137 4.01808063 33.13968909 7.01280513 33.1328125 10.03125 C33.13376923 10.93750122 33.13472595 11.84375244 33.13571167 12.77746582 C33.13639353 14.69751047 33.13453882 16.61755741 33.13037109 18.53759766 C33.12502292 21.48735704 33.13031588 24.43696414 33.13671875 27.38671875 C33.13605797 29.24739617 33.13477681 31.1080735 33.1328125 32.96875 C33.13483673 33.85727661 33.13686096 34.74580322 33.13894653 35.66125488 C33.11494988 41.88505012 33.11494988 41.88505012 32 43 C26.26388889 43.27314815 26.26388889 43.27314815 24 43 C20.97906785 39.97906785 21.53323166 36.43627928 21.375 32.375 C21.31699219 31.17230469 21.31699219 31.17230469 21.2578125 29.9453125 C21.16346069 27.96392444 21.08063785 25.98199355 21 24 C18.69 28.95 16.38 33.9 14 39 C11.36 39 8.72 39 6 39 C2.04 30.585 2.04 30.585 -2 22 C-2.06058594 23.43214844 -2.12117187 24.86429687 -2.18359375 26.33984375 C-2.26798104 28.20574041 -2.35262993 30.07162524 -2.4375 31.9375 C-2.49647461 33.35579102 -2.49647461 33.35579102 -2.55664062 34.80273438 C-2.59853516 35.70185547 -2.64042969 36.60097656 -2.68359375 37.52734375 C-2.73858032 38.77632446 -2.73858032 38.77632446 -2.79467773 40.05053711 C-3 42 -3 42 -4 43 C-10.52542373 43.23728814 -10.52542373 43.23728814 -13 42 C-13 28.47 -13 14.94 -13 1 C-5.125 -1.625 -5.125 -1.625 0 0 Z " fill="#212121" transform="translate(173,303)"/>
<path d="M0 0 C1.10923828 0.00193359 2.21847656 0.00386719 3.36132812 0.00585938 C5.09866211 0.02422852 5.09866211 0.02422852 6.87109375 0.04296875 C8.61422852 0.04393555 8.61422852 0.04393555 10.39257812 0.04492188 C19.02792245 0.0901331 19.02792245 0.0901331 21.30859375 1.23046875 C21.30859375 4.20046875 21.30859375 7.17046875 21.30859375 10.23046875 C14.70859375 10.23046875 8.10859375 10.23046875 1.30859375 10.23046875 C1.30859375 12.54046875 1.30859375 14.85046875 1.30859375 17.23046875 C7.24859375 17.23046875 13.18859375 17.23046875 19.30859375 17.23046875 C19.30859375 20.20046875 19.30859375 23.17046875 19.30859375 26.23046875 C6.63888988 27.56304278 6.63888988 27.56304278 1.30859375 26.23046875 C1.30859375 28.87046875 1.30859375 31.51046875 1.30859375 34.23046875 C7.90859375 34.23046875 14.50859375 34.23046875 21.30859375 34.23046875 C21.30859375 37.20046875 21.30859375 40.17046875 21.30859375 43.23046875 C19.4782532 45.0608093 16.57647383 44.36089672 14.12109375 44.36328125 C12.86554688 44.36457031 11.61 44.36585938 10.31640625 44.3671875 C9.65930664 44.36509277 9.00220703 44.36299805 8.32519531 44.36083984 C6.3169804 44.35549109 4.30898916 44.36078566 2.30078125 44.3671875 C1.04523438 44.36589844 -0.2103125 44.36460937 -1.50390625 44.36328125 C-2.66535156 44.36215332 -3.82679688 44.36102539 -5.0234375 44.35986328 C-7.69140625 44.23046875 -7.69140625 44.23046875 -8.69140625 43.23046875 C-8.81737945 40.2240992 -8.8800948 37.24196345 -8.89453125 34.234375 C-8.90023132 33.33049545 -8.9059314 32.42661591 -8.9118042 31.49534607 C-8.92126854 29.57951026 -8.92779385 27.66365806 -8.93164062 25.74780273 C-8.94135394 22.80879507 -8.97236672 19.87048418 -9.00390625 16.93164062 C-9.01043513 15.07422292 -9.01568606 13.2168002 -9.01953125 11.359375 C-9.03187805 10.47600967 -9.04422485 9.59264435 -9.0569458 8.68251038 C-9.04785156 6.20532227 -9.04785156 6.20532227 -8.69140625 2.23046875 C-5.26897932 -0.0511492 -4.01981281 -0.0162102 0 0 Z " fill="#0C0B0B" transform="translate(273.69140625,301.76953125)"/>
<path d="M0 0 C1.21429688 -0.01224609 2.42859375 -0.02449219 3.6796875 -0.03710938 C5.41605469 -0.04000977 5.41605469 -0.04000977 7.1875 -0.04296875 C8.78658203 -0.04913208 8.78658203 -0.04913208 10.41796875 -0.05541992 C13 0.1875 13 0.1875 15 2.1875 C14.67 4.8275 14.34 7.4675 14 10.1875 C7.73 10.1875 1.46 10.1875 -5 10.1875 C-5 12.4975 -5 14.8075 -5 17.1875 C0.94 17.1875 6.88 17.1875 13 17.1875 C13 20.1575 13 23.1275 13 26.1875 C7.06 26.1875 1.12 26.1875 -5 26.1875 C-5 28.8275 -5 31.4675 -5 34.1875 C-4.14450562 34.17964478 -4.14450562 34.17964478 -3.27172852 34.17163086 C-0.70199677 34.15091779 1.86771747 34.1378581 4.4375 34.125 C5.33533203 34.11662109 6.23316406 34.10824219 7.15820312 34.09960938 C8.01220703 34.09638672 8.86621094 34.09316406 9.74609375 34.08984375 C10.53685303 34.08460693 11.3276123 34.07937012 12.14233398 34.07397461 C14 34.1875 14 34.1875 15 35.1875 C15.1328125 37 15.1328125 37 15.125 39.1875 C15.12886719 40.2703125 15.12886719 40.2703125 15.1328125 41.375 C15 43.1875 15 43.1875 14 44.1875 C11.9394469 44.28743532 9.8754741 44.31830906 7.8125 44.3203125 C6.55695313 44.32160156 5.30140625 44.32289063 4.0078125 44.32421875 C3.35071289 44.32212402 2.69361328 44.3200293 2.01660156 44.31787109 C0.00838665 44.31252234 -1.99960459 44.31781691 -4.0078125 44.32421875 C-5.26335937 44.32292969 -6.51890625 44.32164062 -7.8125 44.3203125 C-8.97394531 44.31918457 -10.13539063 44.31805664 -11.33203125 44.31689453 C-14 44.1875 -14 44.1875 -15 43.1875 C-15.08874135 40.08498799 -15.11518455 37.0048188 -15.09765625 33.90234375 C-15.0962413 32.97152481 -15.09482635 32.04070587 -15.09336853 31.0816803 C-15.08775172 28.09608809 -15.0751964 25.11056971 -15.0625 22.125 C-15.05748716 20.10612087 -15.05292388 18.08724057 -15.04882812 16.06835938 C-15.03777683 11.10804428 -15.02050095 6.14778468 -15 1.1875 C-10.65149046 -0.98675477 -4.77642634 0.00253526 0 0 Z " fill="#1D1D1D" transform="translate(236,301.8125)"/>
<path d="M0 0 C1.28068359 -0.00128906 2.56136719 -0.00257813 3.88085938 -0.00390625 C4.88064819 -0.00076416 4.88064819 -0.00076416 5.90063477 0.00244141 C7.93057767 0.007784 9.96029842 0.00249345 11.99023438 -0.00390625 C13.27220703 -0.00261719 14.55417969 -0.00132812 15.875 0 C17.0498999 0.00112793 18.2247998 0.00225586 19.43530273 0.00341797 C22.50390625 0.1328125 22.50390625 0.1328125 26.50390625 1.1328125 C26.50390625 4.1028125 26.50390625 7.0728125 26.50390625 10.1328125 C22.21390625 10.1328125 17.92390625 10.1328125 13.50390625 10.1328125 C13.51176147 11.62445923 13.51176147 11.62445923 13.51977539 13.14624023 C13.53782666 16.82315171 13.54933871 20.50005925 13.55883789 24.17700195 C13.56387782 25.77075864 13.57070975 27.36451069 13.5793457 28.95825195 C13.59142624 31.24431503 13.5971378 33.53031717 13.6015625 35.81640625 C13.60672379 36.53307968 13.61188507 37.24975311 13.61720276 37.98814392 C13.61739888 39.70344922 13.56582632 41.41862516 13.50390625 43.1328125 C12.50390625 44.1328125 12.50390625 44.1328125 10.69140625 44.265625 C9.96953125 44.26304687 9.24765625 44.26046875 8.50390625 44.2578125 C7.78203125 44.26039063 7.06015625 44.26296875 6.31640625 44.265625 C4.50390625 44.1328125 4.50390625 44.1328125 3.50390625 43.1328125 C3.41546832 40.68450824 3.38861873 38.26460651 3.40625 35.81640625 C3.40766495 35.08535172 3.4090799 34.35429718 3.41053772 33.60108948 C3.41615217 31.25745618 3.42870703 28.91391711 3.44140625 26.5703125 C3.44641939 24.98502742 3.45098262 23.39974084 3.45507812 21.81445312 C3.46612628 17.9205364 3.48340053 14.02669045 3.50390625 10.1328125 C-0.78609375 10.1328125 -5.07609375 10.1328125 -9.49609375 10.1328125 C-9.49609375 7.1628125 -9.49609375 4.1928125 -9.49609375 1.1328125 C-6.12507494 0.00913956 -3.55177839 0.00341306 0 0 Z " fill="#1B1919" transform="translate(313.49609375,301.8671875)"/>
<path d="M0 0 C2.4375 0.6875 2.4375 0.6875 5 2 C5.8125 4.625 5.8125 4.625 6 7 C2.15514867 10.98553036 -2.31070619 10.5498371 -7.50024414 10.67700195 C-8.43329156 10.71001813 -9.36633898 10.74303431 -10.32766056 10.77705097 C-19.88184588 11.08931592 -29.4375373 11.16387565 -38.99609375 11.16796875 C-40.81258671 11.17119575 -42.62907943 11.1745608 -44.4455719 11.17805481 C-48.2024089 11.18396324 -51.95922315 11.18590269 -55.71606445 11.18530273 C-60.52066861 11.1851999 -65.32512898 11.19901174 -70.12969875 11.21607494 C-73.85891899 11.22718593 -77.58810384 11.22922246 -81.31733894 11.22869301 C-83.09030733 11.22986831 -84.86327677 11.23426466 -86.63622856 11.24202538 C-89.10191079 11.25183601 -91.56727146 11.24894643 -94.03295898 11.24291992 C-95.11528053 11.25134918 -95.11528053 11.25134918 -96.21946716 11.25994873 C-100.51814518 11.23328684 -104.00182867 10.57369096 -108 9 C-108 8.67 -108 8.34 -108 8 C-53.055 7.505 -53.055 7.505 3 7 C2.01 5.35 1.02 3.7 0 2 C0 1.34 0 0.68 0 0 Z " fill="#739836" transform="translate(289,261)"/>
<path d="M0 0 C1.10923828 0.00193359 2.21847656 0.00386719 3.36132812 0.00585938 C5.09866211 0.02422852 5.09866211 0.02422852 6.87109375 0.04296875 C8.61422852 0.04393555 8.61422852 0.04393555 10.39257812 0.04492188 C19.02792245 0.0901331 19.02792245 0.0901331 21.30859375 1.23046875 C21.30859375 4.20046875 21.30859375 7.17046875 21.30859375 10.23046875 C14.70859375 10.23046875 8.10859375 10.23046875 1.30859375 10.23046875 C1.63859375 12.87046875 1.96859375 15.51046875 2.30859375 18.23046875 C1.64859375 18.23046875 0.98859375 18.23046875 0.30859375 18.23046875 C0.30859375 15.26046875 0.30859375 12.29046875 0.30859375 9.23046875 C6.90859375 9.23046875 13.50859375 9.23046875 20.30859375 9.23046875 C20.30859375 6.92046875 20.30859375 4.61046875 20.30859375 2.23046875 C11.39859375 2.23046875 2.48859375 2.23046875 -6.69140625 2.23046875 C-6.36140625 15.43046875 -6.03140625 28.63046875 -5.69140625 42.23046875 C7.17859375 42.72546875 7.17859375 42.72546875 20.30859375 43.23046875 C20.30859375 43.56046875 20.30859375 43.89046875 20.30859375 44.23046875 C16.33928386 44.25512756 12.37000341 44.27330898 8.40063477 44.28540039 C7.04938989 44.29043932 5.69815049 44.29727052 4.34692383 44.3059082 C2.40838941 44.31799294 0.46981575 44.32316703 -1.46875 44.328125 C-3.22046509 44.33598022 -3.22046509 44.33598022 -5.00756836 44.34399414 C-7.69140625 44.23046875 -7.69140625 44.23046875 -8.69140625 43.23046875 C-8.81737945 40.2240992 -8.8800948 37.24196345 -8.89453125 34.234375 C-8.90023132 33.33049545 -8.9059314 32.42661591 -8.9118042 31.49534607 C-8.92126854 29.57951026 -8.92779385 27.66365806 -8.93164062 25.74780273 C-8.94135394 22.80879507 -8.97236672 19.87048418 -9.00390625 16.93164062 C-9.01043513 15.07422292 -9.01568606 13.2168002 -9.01953125 11.359375 C-9.03187805 10.47600967 -9.04422485 9.59264435 -9.0569458 8.68251038 C-9.04785156 6.20532227 -9.04785156 6.20532227 -8.69140625 2.23046875 C-5.26897932 -0.0511492 -4.01981281 -0.0162102 0 0 Z " fill="#777476" transform="translate(273.69140625,301.76953125)"/>
<path d="M0 0 C3 0.625 3 0.625 5 2.625 C5.18765773 5.03426234 5.25200981 7.32748397 5.22705078 9.73681641 C5.22734283 10.46862625 5.22763489 11.2004361 5.22793579 11.954422 C5.22654001 14.37858854 5.2109674 16.80244951 5.1953125 19.2265625 C5.19158325 20.90522087 5.18873586 22.58388141 5.18673706 24.26254272 C5.17909369 28.68491607 5.15943922 33.10715845 5.1373291 37.52947998 C5.11688579 42.04046863 5.10773859 46.5514784 5.09765625 51.0625 C5.07619394 59.91672427 5.04204955 68.77085125 5 77.625 C4.67 77.625 4.34 77.625 4 77.625 C4 53.535 4 29.445 4 4.625 C1.525 4.13 1.525 4.13 -1 3.625 C-1 2.965 -1 2.305 -1 1.625 C-1.66 1.625 -2.32 1.625 -3 1.625 C-3.268125 2.594375 -3.53625 3.56375 -3.8125 4.5625 C-4.204375 5.573125 -4.59625 6.58375 -5 7.625 C-5.99 7.955 -6.98 8.285 -8 8.625 C-8 7.965 -8 7.305 -8 6.625 C-9.32 7.615 -10.64 8.605 -12 9.625 C-12.66 9.295 -13.32 8.965 -14 8.625 C-4.49489463 0.05701769 -4.49489463 0.05701769 0 0 Z " fill="#6C8D42" transform="translate(320,189.375)"/>
<path d="M0 0 C1.98 0.66 3.96 1.32 6 2 C6.33 1.34 6.66 0.68 7 0 C7.33 1.65 7.66 3.3 8 5 C9.65 4.34 11.3 3.68 13 3 C12.67 4.65 12.34 6.3 12 8 C12.99 8 13.98 8 15 8 C15 8.66 15 9.32 15 10 C15.804375 10.268125 16.60875 10.53625 17.4375 10.8125 C18.283125 11.204375 19.12875 11.59625 20 12 C20.33 12.99 20.66 13.98 21 15 C21.66 15.33 22.32 15.66 23 16 C22.67 16.66 22.34 17.32 22 18 C19.26604487 15.94378815 16.53874618 13.87891881 13.8125 11.8125 C13.04357422 11.23435547 12.27464844 10.65621094 11.48242188 10.06054688 C7.35803717 6.9274306 3.54840402 3.77595698 0 0 Z " fill="#70982E" transform="translate(280,241)"/>
<path d="M0 0 C2 1.5625 2 1.5625 4 4 C4.375 7.625 4.375 7.625 4 11 C2 13 2 13 -1.9140625 13.1953125 C-3.48449351 13.18200376 -5.05486221 13.15813602 -6.625 13.125 C-7.42679687 13.11597656 -8.22859375 13.10695312 -9.0546875 13.09765625 C-11.03658523 13.07406223 -13.01832981 13.03819065 -15 13 C-15 12.67 -15 12.34 -15 12 C-9.72 11.34 -4.44 10.68 1 10 C0.67 6.7 0.34 3.4 0 0 Z " fill="#6A942F" transform="translate(282,165)"/>
<path d="M0 0 C3 0.625 3 0.625 5 2.625 C5.1953125 5.0078125 5.1953125 5.0078125 5.125 7.75 C5.10695313 8.66007813 5.08890625 9.57015625 5.0703125 10.5078125 C5.04710937 11.20648438 5.02390625 11.90515625 5 12.625 C4.67 12.625 4.34 12.625 4 12.625 C4 9.985 4 7.345 4 4.625 C1.525 4.13 1.525 4.13 -1 3.625 C-1 2.965 -1 2.305 -1 1.625 C-1.66 1.625 -2.32 1.625 -3 1.625 C-3.268125 2.594375 -3.53625 3.56375 -3.8125 4.5625 C-4.204375 5.573125 -4.59625 6.58375 -5 7.625 C-5.99 7.955 -6.98 8.285 -8 8.625 C-8 7.965 -8 7.305 -8 6.625 C-9.32 7.615 -10.64 8.605 -12 9.625 C-12.66 9.295 -13.32 8.965 -14 8.625 C-4.49489463 0.05701769 -4.49489463 0.05701769 0 0 Z " fill="#79984D" transform="translate(320,189.375)"/>
<path d="M0 0 C2.4375 0.6875 2.4375 0.6875 5 2 C5.8125 4.625 5.8125 4.625 6 7 C3.32968716 9.67733998 1.96278559 10.00280229 -1.890625 10.29296875 C-3.34404009 10.27314945 -4.79731167 10.23754845 -6.25 10.1875 C-7.36761719 10.16719727 -7.36761719 10.16719727 -8.5078125 10.14648438 C-10.33885416 10.11127204 -12.16952169 10.05746851 -14 10 C-14 9.67 -14 9.34 -14 9 C-13.10796875 8.93941406 -12.2159375 8.87882812 -11.296875 8.81640625 C-9.54117187 8.69072266 -9.54117187 8.69072266 -7.75 8.5625 C-6.58984375 8.48128906 -5.4296875 8.40007812 -4.234375 8.31640625 C-1.69022624 8.06752213 0.55953248 7.71885058 3 7 C2.505 6.21625 2.01 5.4325 1.5 4.625 C0 2 0 2 0 0 Z " fill="#779C49" transform="translate(289,261)"/>
<path d="M0 0 C2.97 0.495 2.97 0.495 6 1 C5.01 1.495 5.01 1.495 4 2 C4 2.66 4 3.32 4 4 C2.35546875 5.47265625 2.35546875 5.47265625 0.1875 7.0625 C-0.52019531 7.58972656 -1.22789062 8.11695313 -1.95703125 8.66015625 C-4 10 -4 10 -7 11 C-6.50527325 6.42377756 -6.50527325 6.42377756 -4.0625 4.375 C-3.381875 3.92125 -2.70125 3.4675 -2 3 C-1.34 2.01 -0.68 1.02 0 0 Z " fill="#78A137" transform="translate(272,207)"/>
<path d="M0 0 C0.33 0.66 0.66 1.32 1 2 C0.0625 4.625 0.0625 4.625 -1 7 C-1.66 7 -2.32 7 -3 7 C-3.103125 7.7425 -3.20625 8.485 -3.3125 9.25 C-4.05451038 12.21804151 -5.1904406 13.58725413 -7 16 C-7.71433121 18.64934822 -7.71433121 18.64934822 -8 21 C-8.33 21 -8.66 21 -9 21 C-9.58699489 14.66534685 -8.00626755 11.53760936 -4.5 6.5625 C-4.07074219 5.92634766 -3.64148438 5.29019531 -3.19921875 4.63476562 C-2.14715133 3.08004377 -1.07552 1.53859111 0 0 Z " fill="#8BAC5D" transform="translate(208,155)"/>
<path d="M0 0 C1.98 0 3.96 0 6 0 C6 0.66 6 1.32 6 2 C7.98 1.67 9.96 1.34 12 1 C12.33 1.99 12.66 2.98 13 4 C8.54777453 5.06853411 6.66215204 5.36117384 2.5625 3.125 C1.716875 2.42375 0.87125 1.7225 0 1 C0 0.67 0 0.34 0 0 Z " fill="#739B3D" transform="translate(311,265)"/>
<path d="M0 0 C2.475 0.99 2.475 0.99 5 2 C5 2.66 5 3.32 5 4 C5.78375 4.268125 6.5675 4.53625 7.375 4.8125 C10 6 10 6 12 9 C11.01 9.495 11.01 9.495 10 10 C10 9.34 10 8.68 10 8 C9.278125 7.9175 8.55625 7.835 7.8125 7.75 C4.38772874 6.83672766 2.52992571 5.45764212 0 3 C0 2.01 0 1.02 0 0 Z " fill="#7FA343" transform="translate(262,240)"/>
<path d="M0 0 C1.32 0.33 2.64 0.66 4 1 C2.73427767 2.15147661 1.46222094 3.29599314 0.1875 4.4375 C-0.52019531 5.07558594 -1.22789062 5.71367187 -1.95703125 6.37109375 C-4 8 -4 8 -7 9 C-7 8.34 -7 7.68 -7 7 C-7.66 6.67 -8.32 6.34 -9 6 C-7.25 4.4375 -7.25 4.4375 -5 3 C-2.75 3.3125 -2.75 3.3125 -1 4 C-0.67 2.68 -0.34 1.36 0 0 Z " fill="#81A546" transform="translate(285,199)"/>
<path d="M0 0 C1.98 0.99 1.98 0.99 4 2 C3.01 3.485 3.01 3.485 2 5 C1.6349209 7.22131423 1.6349209 7.22131423 1.5859375 9.66796875 C1.54726562 10.56064453 1.50859375 11.45332031 1.46875 12.37304688 C1.4378125 13.30181641 1.406875 14.23058594 1.375 15.1875 C1.33632812 16.12787109 1.29765625 17.06824219 1.2578125 18.03710938 C1.16356813 20.3578771 1.07795975 22.67863748 1 25 C0.67 25 0.34 25 0 25 C0 16.75 0 8.5 0 0 Z " fill="#383838" transform="translate(169,320)"/>
<path d="M0 0 C2 1 2 1 3 3.5 C4.7379306 6.20423695 4.7379306 6.20423695 7.41796875 6.55078125 C9.95064293 6.79011717 12.45694382 6.94751666 15 7 C15 7.33 15 7.66 15 8 C12.68756208 8.02685412 10.3750373 8.04632841 8.0625 8.0625 C6.77472656 8.07410156 5.48695313 8.08570313 4.16015625 8.09765625 C1 8 1 8 0 7 C-0.04092937 4.66702567 -0.04241723 2.33294775 0 0 Z " fill="#608A24" transform="translate(200,170)"/>
<path d="M0 0 C0.66 0.33 1.32 0.66 2 1 C1.3125 3.4375 1.3125 3.4375 0 6 C-2.625 6.8125 -2.625 6.8125 -5 7 C-5.33 7.99 -5.66 8.98 -6 10 C-5.72510809 5.96825194 -5.46508424 4.43105369 -2.4375 1.625 C-1.633125 1.08875 -0.82875 0.5525 0 0 Z " fill="#78A246" transform="translate(182,189)"/>
<path d="M0 0 C3.48331435 3.01887244 4.79157144 5.56909529 6 10 C4.35 9.67 2.7 9.34 1 9 C1.33 7.68 1.66 6.36 2 5 C1.34 5 0.68 5 0 5 C-0.33 4.01 -0.66 3.02 -1 2 C-0.67 1.34 -0.34 0.68 0 0 Z " fill="#739D3C" transform="translate(276,155)"/>
<path d="M0 0 C0 0.66 0 1.32 0 2 C-1.11375 2.6496875 -1.11375 2.6496875 -2.25 3.3125 C-5.27178496 5.16677714 -6.92480878 7.15621943 -9 10 C-10.32 9.67 -11.64 9.34 -13 9 C-12.01 8.67 -11.02 8.34 -10 8 C-10 7.34 -10 6.68 -10 6 C-8.3203125 4.4921875 -8.3203125 4.4921875 -6.125 2.875 C-5.40570313 2.33617187 -4.68640625 1.79734375 -3.9453125 1.2421875 C-2 0 -2 0 0 0 Z " fill="#8BAB5C" transform="translate(306,199)"/>
<path d="M0 0 C0.66 0.33 1.32 0.66 2 1 C1.484375 1.4125 0.96875 1.825 0.4375 2.25 C-1.2422832 3.87499557 -1.2422832 3.87499557 -0.8125 5.9375 C0.0126237 8.03204478 0.93709487 10.01591042 2 12 C0 11 -2 10 -4 9 C-4.25 6.75 -4.25 6.75 -4 4 C-2 1.6875 -2 1.6875 0 0 Z " fill="#85A755" transform="translate(272,224)"/>
<path d="M0 0 C0.58265625 0.22558594 1.1653125 0.45117188 1.765625 0.68359375 C0.390625 3.18359375 0.390625 3.18359375 -1.234375 5.68359375 C-1.894375 5.68359375 -2.554375 5.68359375 -3.234375 5.68359375 C-3.234375 5.02359375 -3.234375 4.36359375 -3.234375 3.68359375 C-4.554375 4.67359375 -5.874375 5.66359375 -7.234375 6.68359375 C-7.894375 6.35359375 -8.554375 6.02359375 -9.234375 5.68359375 C-8.16544282 4.64769037 -7.07859012 3.63025433 -5.984375 2.62109375 C-5.38109375 2.05261719 -4.7778125 1.48414063 -4.15625 0.8984375 C-2.234375 -0.31640625 -2.234375 -0.31640625 0 0 Z " fill="#709C36" transform="translate(315.234375,192.31640625)"/>
<path d="M0 0 C6.62637363 1.91428571 6.62637363 1.91428571 9 5 C10.1875 7.1875 10.1875 7.1875 11 9 C6.90784086 6.71320518 3.50049752 4.09346293 0 1 C0 0.67 0 0.34 0 0 Z " fill="#90AC62" transform="translate(292,250)"/>
<path d="M0 0 C0.928125 0.0825 1.85625 0.165 2.8125 0.25 C1.8225 0.745 1.8225 0.745 0.8125 1.25 C0.16036708 3.27463255 0.16036708 3.27463255 -0.1875 5.25 C-3.1575 4.755 -3.1575 4.755 -6.1875 4.25 C-4.36434338 1.00883268 -3.82500054 0.30000004 0 0 Z " fill="#6C962E" transform="translate(294.1875,208.75)"/>
<path d="M0 0 C1.41377341 2.63904371 2.37240135 5.07120629 3 8 C2.34 8 1.68 8 1 8 C1 7.34 1 6.68 1 6 C-0.2065625 5.566875 -0.2065625 5.566875 -1.4375 5.125 C-4 4 -4 4 -5 2 C-3.35 1.34 -1.7 0.68 0 0 Z " fill="#7DA140" transform="translate(308,257)"/>
<path d="M0 0 C0.66 0.33 1.32 0.66 2 1 C0.5023304 3.49824035 -1.01558218 5.86004673 -3 8 C-5.8125 8.4375 -5.8125 8.4375 -8 8 C-5.58443874 4.80800833 -3.31996462 2.25283313 0 0 Z " fill="#7A9F46" transform="translate(286,213)"/>
<path d="M0 0 C1.12017372 2.16033504 2.11444805 4.29327313 3 6.5625 C3.98451106 9.19059626 3.98451106 9.19059626 6 12 C4.68 12 3.36 12 2 12 C-0.60018816 8.09971775 -0.15085514 4.52565431 0 0 Z " fill="#86A75D" transform="translate(256,228)"/>
<path d="M0 0 C1.32 0.33 2.64 0.66 4 1 C0.535 3.97 0.535 3.97 -3 7 C-3.66 6.67 -4.32 6.34 -5 6 C-3.35 4.02 -1.7 2.04 0 0 Z " fill="#659323" transform="translate(276,221)"/>
<path d="M0 0 C2.62386487 3.06117568 3 3.73173127 3 8 C1.0625 7.3125 1.0625 7.3125 -1 6 C-1.75 3.375 -1.75 3.375 -2 1 C-1.34 0.67 -0.68 0.34 0 0 Z " fill="#81A14E" transform="translate(178,261)"/>
<path d="M0 0 C1.98 0.66 3.96 1.32 6 2 C6.33 1.34 6.66 0.68 7 0 C7.33 1.98 7.66 3.96 8 6 C4.63408134 4.55746343 2.48952921 2.66735273 0 0 Z " fill="#84A94B" transform="translate(280,241)"/>
<path d="M0 0 C3.36591866 1.44253657 5.51047079 3.33264727 8 6 C6.35 5.67 4.7 5.34 3 5 C3 4.34 3 3.68 3 3 C2.01 3.33 1.02 3.66 0 4 C0 2.68 0 1.36 0 0 Z " fill="#7FA746" transform="translate(275,250)"/>
<path d="M0 0 C0.99 0.33 1.98 0.66 3 1 C1.625 3 1.625 3 0 5 C-0.66 5 -1.32 5 -2 5 C-2.33 6.32 -2.66 7.64 -3 9 C-3 6.69 -3 4.38 -3 2 C-2.01 2 -1.02 2 0 2 C0 1.34 0 0.68 0 0 Z " fill="#8EAF53" transform="translate(260,219)"/>
<path d="M0 0 C1.32 0 2.64 0 4 0 C3.67 1.32 3.34 2.64 3 4 C1.02 4 -0.96 4 -3 4 C-1.75 2 -1.75 2 0 0 Z " fill="#64971D" transform="translate(261,216)"/>
<path d="M0 0 C2 1.5625 2 1.5625 4 4 C4.25 7.75 4.25 7.75 4 11 C3.566875 10.1028125 3.566875 10.1028125 3.125 9.1875 C1.95257974 6.80672208 1.95257974 6.80672208 0 4 C0 2.68 0 1.36 0 0 Z " fill="#87A959" transform="translate(282,165)"/>
</svg>
