<?xml version="1.0" encoding="UTF-8"?>
<svg version="1.1" xmlns="http://www.w3.org/2000/svg" width="200" height="200">
<path d="M0 0 C0.16225719 2.75236274 0.2809328 5.49517476 0.375 8.25 C0.42527344 9.02730469 0.47554688 9.80460937 0.52734375 10.60546875 C0.58567488 12.88038292 0.5558114 14.79104909 0 17 C-3.0502454 19.73224999 -4.68125021 21.02930555 -8.8125 20.9375 C-12.16076694 19.95271561 -15.46650846 18.89072782 -18.75390625 17.71875 C-29.39959211 14.31213053 -40.45063764 15.48321629 -50.515625 20.171875 C-57.84082656 23.92956875 -57.84082656 23.92956875 -63 30 C-63.66 30 -64.32 30 -65 30 C-65.2475 30.680625 -65.495 31.36125 -65.75 32.0625 C-66.98089789 34.95511005 -68.4360807 37.49772912 -70.09765625 40.15625 C-71.30648078 42.42784843 -71.30648078 42.42784843 -72 47 C-56.49 47 -40.98 47 -25 47 C-25 53.93 -25 60.86 -25 68 C-26.57073532 69.57073532 -28.15362218 69.16369307 -30.33618164 69.20532227 C-31.2570607 69.22526749 -32.17793976 69.24521271 -33.12672424 69.26576233 C-34.12775681 69.28247482 -35.12878937 69.29918732 -36.16015625 69.31640625 C-37.17975937 69.33718735 -38.19936249 69.35796844 -39.24986267 69.37937927 C-42.52067048 69.44498852 -45.79156137 69.50381234 -49.0625 69.5625 C-51.27409728 69.60567442 -53.48568603 69.64928834 -55.69726562 69.69335938 C-61.13142151 69.8006814 -66.56566082 69.90242623 -72 70 C-71.40362909 71.58628608 -70.79754075 73.16892059 -70.1875 74.75 C-69.85105469 75.63171875 -69.51460937 76.5134375 -69.16796875 77.421875 C-68.03112171 79.93130326 -66.6558864 81.81745632 -65 84 C-65 84.66 -65 85.32 -65 86 C-64.34 86 -63.68 86 -63 86 C-61.9790625 87.051875 -61.9790625 87.051875 -60.9375 88.125 C-52.60789842 96.69815718 -43.22778996 100.09231573 -31.4375 100.375 C-24.24975843 100.22993963 -18.83701276 98.73579149 -12.375 95.8125 C-9.0195848 94.6645948 -6.52090156 94.55988731 -3 95 C-0.0625 96.625 -0.0625 96.625 2 100 C2.74687918 104.79247476 2.79130795 109.21112151 2 114 C-0.25 116.625 -0.25 116.625 -4 118 C-4.804375 118.3403125 -5.60875 118.680625 -6.4375 119.03125 C-24.27540059 125.96821134 -43.22227758 124.9723835 -60.78125 117.72265625 C-67.48134992 114.1368018 -77.2989461 108.40611553 -80 101 C-80.66 101 -81.32 101 -82 101 C-86 95.58823529 -86 95.58823529 -86 93 C-86.66 93 -87.32 93 -88 93 C-96.69782675 74.81114846 -100.04980963 57.47105877 -94 37.73828125 C-87.65344417 20.09736126 -76.05054306 6.07419896 -59 -2 C-40.37056039 -10.03332978 -18.09392663 -9.15503057 0 0 Z " fill="#10613D" transform="translate(252,192)"/>
<path d="M0 0 C1.69229485 -0.01925285 1.69229485 -0.01925285 3.41877747 -0.03889465 C4.64787338 -0.04628159 5.8769693 -0.05366852 7.14331055 -0.0612793 C8.39758347 -0.06935104 9.65185638 -0.07742279 10.94413757 -0.08573914 C13.60488601 -0.09960081 16.26550964 -0.11061092 18.92626953 -0.11816406 C22.33286985 -0.1292205 25.73881545 -0.16360488 29.14518452 -0.20333576 C32.39449515 -0.23578678 35.64386255 -0.24028021 38.89331055 -0.2487793 C40.11633377 -0.26628738 41.33935699 -0.28379547 42.59944153 -0.30183411 C43.73709457 -0.29890854 44.87474762 -0.29598297 46.046875 -0.29296875 C47.04757523 -0.29883499 48.04827545 -0.30470123 49.07929993 -0.31074524 C52.4548493 0.31331526 53.63324044 1.49932625 55.7175293 4.17700195 C56.37778408 8.0559988 56.08059938 9.626137 53.9050293 12.92700195 C51.7175293 15.17700195 51.7175293 15.17700195 48.7175293 17.17700195 C47.49036906 20.85848265 47.53346116 24.28110958 47.5300293 28.11450195 C47.51166016 29.18861328 47.51166016 29.18861328 47.49291992 30.28442383 C47.48243793 34.05444552 47.48481651 37.04816635 49.7175293 40.17700195 C50.5631543 40.77512695 51.4087793 41.37325195 52.2800293 41.98950195 C54.7175293 44.17700195 54.7175293 44.17700195 55.7800293 47.61450195 C55.7175293 51.17700195 55.7175293 51.17700195 54.51074219 53.86254883 C49.89444873 57.6876045 44.76598319 56.8489367 38.96362305 56.77075195 C37.08502342 56.77081238 37.08502342 56.77081238 35.16847229 56.77087402 C32.52062678 56.76551136 29.87498706 56.75056183 27.22753906 56.71899414 C23.83548798 56.67927457 20.44454574 56.67495417 17.05230618 56.68245697 C13.81431811 56.68626478 10.57654095 56.66545079 7.33862305 56.64575195 C6.1198497 56.64555054 4.90107635 56.64534912 3.64537048 56.6451416 C2.51732498 56.62922974 1.38927948 56.61331787 0.22705078 56.59692383 C-0.76682144 56.58850464 -1.76069366 56.58008545 -2.78468323 56.57141113 C-5.692384 56.11227524 -6.56140448 55.52410055 -8.2824707 53.17700195 C-9.20279134 50.41604003 -9.41798849 48.72749525 -9.44360352 45.87670898 C-9.45321106 45.01216095 -9.4628186 44.14761292 -9.47271729 43.25686646 C-9.47696716 42.32558929 -9.48121704 41.39431213 -9.4855957 40.43481445 C-9.49129578 39.47429169 -9.49699585 38.51376892 -9.50286865 37.5241394 C-9.51231528 35.49160869 -9.5188513 33.45906268 -9.52270508 31.42651367 C-9.53241153 28.32093538 -9.56343856 25.2160187 -9.5949707 22.1105957 C-9.60150087 20.13533921 -9.60675129 18.160078 -9.6105957 16.18481445 C-9.6229425 15.25758575 -9.63528931 14.33035706 -9.64801025 13.37503052 C-9.62120059 5.59545964 -8.50845004 0.08390045 0 0 Z " fill="#32B901" transform="translate(249.282470703125,221.822998046875)"/>
<path d="M0 0 C1.67105103 1.19081116 1.67105103 1.19081116 3 3 C3.38095093 5.49778748 3.38095093 5.49778748 3.38818359 8.50952148 C3.39764008 9.63756699 3.40709656 10.76561249 3.4168396 11.92784119 C3.41076691 13.14661453 3.40469421 14.36538788 3.3984375 15.62109375 C3.40130768 16.87253677 3.40417786 18.1239798 3.40713501 19.41334534 C3.40917842 22.06241859 3.40513407 24.71066398 3.39111328 27.35961914 C3.37403833 30.75041914 3.38385175 34.14050586 3.40183067 37.53127956 C3.41529806 40.7695763 3.40585886 44.0077877 3.3984375 47.24609375 C3.40754654 49.07121742 3.40754654 49.07121742 3.4168396 50.93321228 C3.40738312 52.06440994 3.39792664 53.1956076 3.38818359 54.36108398 C3.38579681 55.3557518 3.38341003 56.35041962 3.38095093 57.37522888 C2.93616394 60.43983365 2.17763422 61.81830429 0 64 C-6.11337607 64.99296048 -9.60593861 62.95852172 -14.4375 59.625 C-15.07365234 59.2125 -15.70980469 58.8 -16.36523438 58.375 C-17.95591415 57.31568586 -19.48456957 56.16442227 -21 55 C-21 54.34 -21 53.68 -21 53 C-22.98 52.34 -24.96 51.68 -27 51 C-27 50.34 -27 49.68 -27 49 C-27.66 48.773125 -28.32 48.54625 -29 48.3125 C-39.04 43.92 -39.04 43.92 -41 40 C-41.17704592 37.35882311 -41.27741548 34.76803404 -41.3125 32.125 C-41.34150391 31.40441406 -41.37050781 30.68382812 -41.40039062 29.94140625 C-41.44101177 26.54797825 -41.34515946 24.46735385 -39.30078125 21.69921875 C-36.87860666 19.91034618 -34.44533063 18.25742498 -31.875 16.6875 C-28.13573905 14.36040675 -24.47263176 11.97832743 -20.875 9.4375 C-20.06160156 8.86773437 -19.24820312 8.29796875 -18.41015625 7.7109375 C-16.80036854 6.56817086 -15.20385067 5.4064831 -13.62109375 4.2265625 C-9.01113368 0.90364712 -5.9100995 -1.06381791 0 0 Z " fill="#31B901" transform="translate(342,218)"/>
<path d="M0 0 C0.33 0 0.66 0 1 0 C1.33 16.83 1.66 33.66 2 51 C8.05624561 51.86672079 8.05624561 51.86672079 14.0456543 52.16113281 C14.97319016 52.17074036 15.90072601 52.1803479 16.85636902 52.19024658 C17.83575943 52.19449646 18.81514984 52.19874634 19.82421875 52.203125 C20.84804153 52.20882507 21.87186432 52.21452515 22.92671204 52.22039795 C25.08076963 52.22980579 27.23484135 52.23636507 29.38891602 52.24023438 C32.68726259 52.2499993 35.98500093 52.28108621 39.28320312 52.3125 C41.38020465 52.3190252 43.4772106 52.32427756 45.57421875 52.328125 C46.55968185 52.3404718 47.54514496 52.3528186 48.56047058 52.36553955 C49.47854996 52.36253845 50.39662933 52.35953735 51.3425293 52.35644531 C52.14748337 52.36009094 52.95243744 52.36373657 53.78178406 52.36749268 C56.59091444 51.90210298 57.96894657 50.97500219 60 49 C60.33397787 45.87413125 60.33397787 45.87413125 60 43 C58.02 42.34 56.04 41.68 54 41 C54 38.69 54 36.38 54 34 C55.68997323 35.64302953 57.35216394 37.31471312 59 39 C59.78375 39.78375 60.5675 40.5675 61.375 41.375 C63 44 63 44 62.9375 47.625 C62.00022878 50.99917638 61.72170241 51.99944553 59 54 C56.4954834 54.38095093 56.4954834 54.38095093 53.47460938 54.38818359 C51.77769958 54.40236832 51.77769958 54.40236832 50.04650879 54.4168396 C48.82459839 54.41076691 47.60268799 54.40469421 46.34375 54.3984375 C45.0899353 54.40130768 43.83612061 54.40417786 42.54431152 54.40713501 C39.8910425 54.40917827 37.23860029 54.40513468 34.58544922 54.39111328 C31.18558366 54.37402086 27.78642854 54.38386317 24.38658905 54.40183067 C21.14311722 54.41528089 17.8997311 54.40586234 14.65625 54.3984375 C12.8233844 54.40754654 12.8233844 54.40754654 10.95349121 54.4168396 C9.82221802 54.40738312 8.69094482 54.39792664 7.52539062 54.38818359 C6.5285022 54.38579681 5.53161377 54.38341003 4.5045166 54.38095093 C2 54 2 54 0.21716309 52.66323853 C-1.90214957 49.7672236 -2.12795045 47.14906745 -2.14526367 43.68383789 C-2.15164352 42.81606216 -2.15802338 41.94828644 -2.16459656 41.05421448 C-2.16570938 40.11980026 -2.1668222 39.18538605 -2.16796875 38.22265625 C-2.17129715 37.25976181 -2.17462555 36.29686737 -2.17805481 35.30479431 C-2.183118 33.26806109 -2.18546332 31.23131958 -2.18530273 29.19458008 C-2.18748902 26.07814885 -2.20565067 22.9620717 -2.22460938 19.84570312 C-2.22754344 17.86718871 -2.22952815 15.88867262 -2.23046875 13.91015625 C-2.23765427 12.97776627 -2.24483978 12.04537628 -2.25224304 11.08473206 C-2.24916641 10.21380417 -2.24608978 9.34287628 -2.24291992 8.44555664 C-2.24434494 7.68183243 -2.24576996 6.91810822 -2.24723816 6.13124084 C-1.96786158 3.72296058 -1.19628909 2.09195356 0 0 Z " fill="#6BBC51" transform="translate(242,224)"/>
<path d="M0 0 C3.4375 0.4375 3.4375 0.4375 5.12808228 1.62049866 C6.9378147 4.13175705 6.81828432 5.86590923 6.82568359 8.94702148 C6.83514008 10.07506699 6.84459656 11.20311249 6.8543396 12.36534119 C6.84826691 13.58411453 6.84219421 14.80288788 6.8359375 16.05859375 C6.83880768 17.31003677 6.84167786 18.5614798 6.84463501 19.85084534 C6.84667842 22.49991859 6.84263407 25.14816398 6.82861328 27.79711914 C6.81153833 31.18791914 6.82135175 34.57800586 6.83933067 37.96877956 C6.85279806 41.2070763 6.84335886 44.4452877 6.8359375 47.68359375 C6.84504654 49.50871742 6.84504654 49.50871742 6.8543396 51.37071228 C6.84488312 52.50190994 6.83542664 53.6331076 6.82568359 54.79858398 C6.82329681 55.7932518 6.82091003 56.78791962 6.81845093 57.81272888 C6.37399937 60.87502255 5.59874904 62.24592645 3.4375 64.4375 C-0.50753344 65.32311975 -2.76159794 64.90800077 -6.2421875 62.86328125 C-8.74020059 61.118918 -11.17055248 59.32410649 -13.5625 57.4375 C-11.75 55.875 -11.75 55.875 -9.5625 54.4375 C-8.5725 54.7675 -7.5825 55.0975 -6.5625 55.4375 C-7.5525 55.9325 -7.5525 55.9325 -8.5625 56.4375 C-8.5625 57.0975 -8.5625 57.7575 -8.5625 58.4375 C-4.90242527 60.05223885 -1.50715818 60.83104978 2.4375 61.4375 C2.58269932 56.17634148 2.72496444 50.91511385 2.86474609 45.65380859 C2.912482 43.87156133 2.96095958 42.08933375 3.01025391 40.30712891 C3.25833857 31.32038866 3.48510825 22.33413219 3.53125 13.34375 C3.53833984 12.07853516 3.54542969 10.81332031 3.55273438 9.50976562 C3.57978194 6.3969335 3.57978194 6.3969335 2.4375 3.4375 C-0.8625 3.7675 -4.1625 4.0975 -7.5625 4.4375 C-5.11203627 1.30090643 -4.03256326 0.49522707 0 0 Z " fill="#3FAF10" transform="translate(338.5625,217.5625)"/>
<path d="M0 0 C3.4375 0.4375 3.4375 0.4375 5.13105774 1.61653137 C6.94972245 4.15145502 6.79863349 5.90634279 6.77807617 9.01049805 C6.77784958 10.15145432 6.77762299 11.29241058 6.77738953 12.46794128 C6.76190567 13.69926285 6.74642181 14.93058441 6.73046875 16.19921875 C6.72622391 17.46014847 6.72197906 18.72107819 6.71760559 20.0202179 C6.70364627 23.36924943 6.67670104 26.71766758 6.64349365 30.06652832 C6.61278105 33.48505353 6.59909776 36.90364215 6.58398438 40.32226562 C6.55087223 47.02751349 6.50064018 53.73247133 6.4375 60.4375 C6.1075 60.4375 5.7775 60.4375 5.4375 60.4375 C5.41466446 59.76764572 5.39182892 59.09779144 5.36830139 58.40763855 C5.13019248 51.44856729 4.88588349 44.4897335 4.63793945 37.53100586 C4.54617147 34.93242901 4.45599548 32.33379544 4.36743164 29.73510742 C4.2400082 26.00423453 4.10689921 22.27360171 3.97265625 18.54296875 C3.93406998 17.37726852 3.8954837 16.2115683 3.85572815 15.01054382 C3.81576218 13.92964981 3.7757962 12.8487558 3.73461914 11.73510742 C3.68465538 10.30614388 3.68465538 10.30614388 3.63368225 8.84831238 C3.52223337 6.2946331 3.52223337 6.2946331 2.4375 3.4375 C-0.8625 3.7675 -4.1625 4.0975 -7.5625 4.4375 C-5.11203627 1.30090643 -4.03256326 0.49522707 0 0 Z " fill="#7EC465" transform="translate(338.5625,217.5625)"/>
<path d="M0 0 C2.109375 0.421875 2.109375 0.421875 4 1 C3.65066406 1.59167969 3.30132812 2.18335938 2.94140625 2.79296875 C2.48636719 3.58316406 2.03132812 4.37335938 1.5625 5.1875 C1.11003906 5.96480469 0.65757812 6.74210938 0.19140625 7.54296875 C-1.28153692 10.31840999 -1.28153692 10.31840999 -2 15 C13.51 15 29.02 15 45 15 C45 21.93 45 28.86 45 36 C44.67 36 44.34 36 44 36 C44 29.4 44 22.8 44 16 C28.16 16 12.32 16 -4 16 C-4 14.02 -4 12.04 -4 10 C-4.33 9.01 -4.66 8.02 -5 7 C-4.34 6.67 -3.68 6.34 -3 6 C-3 5.01 -3 4.02 -3 3 C-1.75 1.25 -1.75 1.25 0 0 Z " fill="#4A7B67" transform="translate(182,224)"/>
<path d="M0 0 C1.68997323 1.64302953 3.35216394 3.31471312 5 5 C5.78375 5.78375 6.5675 6.5675 7.375 7.375 C9 10 9 10 8.9375 13.625 C7.71981071 18.00868144 7.71981071 18.00868144 5 20 C2.47529602 20.36076355 2.47529602 20.36076355 -0.57299805 20.34057617 C-2.28443245 20.34023628 -2.28443245 20.34023628 -4.03044128 20.33988953 C-5.87742363 20.31666374 -5.87742363 20.31666374 -7.76171875 20.29296875 C-9.65311333 20.28660149 -9.65311333 20.28660149 -11.5827179 20.28010559 C-14.93174943 20.26614627 -18.28016758 20.23920104 -21.62902832 20.20599365 C-25.04755353 20.17528105 -28.46614215 20.16159776 -31.88476562 20.14648438 C-38.59001349 20.11337223 -45.29497133 20.06314018 -52 20 C-52.33 19.34 -52.66 18.68 -53 18 C-52.31983826 18.00666183 -51.63967651 18.01332367 -50.93890381 18.02018738 C-43.86638104 18.08650473 -36.79394646 18.1317858 -29.72119141 18.16479492 C-27.08085544 18.1798909 -24.44054458 18.20036954 -21.80029297 18.22631836 C-18.00742397 18.26266491 -14.21488623 18.27971845 -10.421875 18.29296875 C-9.23946228 18.30845261 -8.05704956 18.32393646 -6.83880615 18.33988953 C-5.1875473 18.34022942 -5.1875473 18.34022942 -3.50292969 18.34057617 C-2.53474304 18.34723801 -1.5665564 18.35389984 -0.56903076 18.36076355 C2.46837263 17.93422742 3.84445488 17.16359231 6 15 C6.33397787 11.87413125 6.33397787 11.87413125 6 9 C4.02 8.34 2.04 7.68 0 7 C0 4.69 0 2.38 0 0 Z " fill="#54A830" transform="translate(296,258)"/>
<path d="M0 0 C0.66 0.33 1.32 0.66 2 1 C1.835 1.763125 1.67 2.52625 1.5 3.3125 C0.83437851 8.22145849 0.92079922 13.05435114 1 18 C2.258125 18.226875 3.51625 18.45375 4.8125 18.6875 C8.75837404 19.63756106 8.75837404 19.63756106 10.75 22.625 C11.1625 23.40875 11.575 24.1925 12 25 C13.32 25 14.64 25 16 25 C16.33 25.99 16.66 26.98 17 28 C19.01508358 28.73323796 19.01508358 28.73323796 21 29 C21 29.66 21 30.32 21 31 C21.66 31.33 22.32 31.66 23 32 C23 32.66 23 33.32 23 34 C21.68 33.67 20.36 33.34 19 33 C19 32.34 19 31.68 19 31 C17.02 30.34 15.04 29.68 13 29 C13 28.34 13 27.68 13 27 C12.34 26.773125 11.68 26.54625 11 26.3125 C0.96 21.92 0.96 21.92 -1 18 C-1.09809858 15.32248582 -1.1390397 12.67690283 -1.125 10 C-1.12886719 9.26265625 -1.13273437 8.5253125 -1.13671875 7.765625 C-1.1266598 2.2533196 -1.1266598 2.2533196 0 0 Z " fill="#67BE45" transform="translate(302,240)"/>
<path d="M0 0 C7.36268096 -0.09273534 14.72523573 -0.16378235 22.08838272 -0.20724869 C25.5075368 -0.22811201 28.92629094 -0.25640505 32.34521484 -0.30175781 C36.27696931 -0.35358618 40.20856257 -0.37295578 44.140625 -0.390625 C45.36678528 -0.41127014 46.59294556 -0.43191528 47.85626221 -0.45318604 C48.99714294 -0.45348816 50.13802368 -0.45379028 51.31347656 -0.45410156 C52.31719299 -0.46298401 53.32090942 -0.47186646 54.3550415 -0.48101807 C57.74573275 0.13562063 58.9309611 1.28973475 61 4 C61.25 7.25 61.25 7.25 61 10 C60.505 8.515 60.505 8.515 60 7 C57.99983534 5.79117904 57.99983534 5.79117904 56 5 C56 4.34 56 3.68 56 3 C52.94655415 1.98218472 50.89716208 1.87902759 47.70239258 1.88647461 C46.62149857 1.88655014 45.54060455 1.88662567 44.42695618 1.88670349 C42.67840584 1.89444542 42.67840584 1.89444542 40.89453125 1.90234375 C39.70018967 1.9037587 38.50584808 1.90517365 37.27531433 1.90663147 C33.45435092 1.9122365 29.63344575 1.92478989 25.8125 1.9375 C23.22461022 1.94251435 20.63671952 1.94707737 18.04882812 1.95117188 C11.69919882 1.96220757 5.34960357 1.97895064 -1 2 C-0.67 1.34 -0.34 0.68 0 0 Z " fill="#479F2B" transform="translate(244,222)"/>
<path d="M0 0 C2.9375 1.625 2.9375 1.625 5 5 C5.41481696 9.69594076 5.28626268 14.29893062 5 19 C4.67 19 4.34 19 4 19 C3.67 16.69 3.34 14.38 3 12 C2.67 12 2.34 12 2 12 C1.855625 10.906875 1.71125 9.81375 1.5625 8.6875 C1.11711896 5.06877013 1.11711896 5.06877013 0 2 C-4.29 2.66 -8.58 3.32 -13 4 C-12 2 -12 2 -9.875 0.875 C-6.30358266 -0.2119531 -3.71644623 -0.46455578 0 0 Z M-7 3 C-6.01 3.495 -6.01 3.495 -5 4 C-5.99 4.495 -5.99 4.495 -7 5 C-7 4.34 -7 3.68 -7 3 Z " fill="#5D9079" transform="translate(249,287)"/>
<path d="M0 0 C0.99 0.33 1.98 0.66 3 1 C2.01 1.495 2.01 1.495 1 2 C1 2.66 1 3.32 1 4 C4.92438786 5.66489182 8.89100419 6.87204037 13 8 C13 7.34 13 6.68 13 6 C13.66 6 14.32 6 15 6 C14.34 7.32 13.68 8.64 13 10 C7.5663559 10.82685888 5.06879523 9.68581611 0.5625 6.5 C-0.97010126 5.34883601 -2.49501007 4.18703431 -4 3 C-2.1875 1.4375 -2.1875 1.4375 0 0 Z " fill="#63BB3F" transform="translate(329,272)"/>
<path d="M0 0 C0.33 0 0.66 0 1 0 C1.125 7.75 1.125 7.75 0 10 C-0.66 10 -1.32 10 -2 10 C-2.02708567 11.60407328 -2.04643483 13.2082785 -2.0625 14.8125 C-2.07410156 15.70582031 -2.08570313 16.59914062 -2.09765625 17.51953125 C-2.11009967 20.13413791 -2.11009967 20.13413791 -1 23 C-1.66 23.66 -2.32 24.32 -3 25 C-3.40047444 27.32275177 -3.7397104 29.65739357 -4 32 C-4.33 32 -4.66 32 -5 32 C-5.39864129 20.74945687 -3.87567683 10.57002772 0 0 Z " fill="#5F967D" transform="translate(160,224)"/>
<path d="M0 0 C-0.04125 0.94875 -0.0825 1.8975 -0.125 2.875 C-0.34973818 6.10244856 -0.34973818 6.10244856 2 8 C2 8.99 2 9.98 2 11 C-0.62187494 9.95125002 -1.79371361 9.35068687 -3.25 6.875 C-3.4975 6.25625 -3.745 5.6375 -4 5 C-4.66 5 -5.32 5 -6 5 C-6.66 3.68 -7.32 2.36 -8 1 C-5.23735711 0.40267181 -2.83967231 0 0 0 Z " fill="#3F7A62" transform="translate(176,288)"/>
<path d="M0 0 C0.66 0.33 1.32 0.66 2 1 C-0.625 5.875 -0.625 5.875 -4 7 C-4 7.66 -4 8.32 -4 9 C-8.455 9.495 -8.455 9.495 -13 10 C-10.35984598 7.35984598 -7.87022631 5.41716876 -4.8125 3.3125 C-3.91144531 2.68988281 -3.01039063 2.06726563 -2.08203125 1.42578125 C-1.39496094 0.95527344 -0.70789063 0.48476562 0 0 Z " fill="#5EBF40" transform="translate(317,230)"/>
<path d="M0 0 C1.68997323 1.64302953 3.35216394 3.31471312 5 5 C5.78375 5.78375 6.5675 6.5675 7.375 7.375 C9 10 9 10 8.75 13.8125 C8.5025 14.864375 8.255 15.91625 8 17 C7.67 17 7.34 17 7 17 C6.67 14.36 6.34 11.72 6 9 C4.02 8.34 2.04 7.68 0 7 C0 4.69 0 2.38 0 0 Z " fill="#7DC661" transform="translate(296,258)"/>
<path d="M0 0 C-0.9590625 0.6496875 -0.9590625 0.6496875 -1.9375 1.3125 C-4.26746003 2.91239177 -4.26746003 2.91239177 -5 6 C-5.22797562 8.73289293 -5.41668187 11.45042204 -5.5625 14.1875 C-5.60568359 14.93708984 -5.64886719 15.68667969 -5.69335938 16.45898438 C-5.79922685 18.30578375 -5.9000976 20.15286834 -6 22 C-6.33 22 -6.66 22 -7 22 C-7 14.74 -7 7.48 -7 0 C-3 -1 -3 -1 0 0 Z " fill="#75C756" transform="translate(302,236)"/>
<path d="M0 0 C0.82693359 0.00451172 1.65386719 0.00902344 2.50585938 0.01367188 C4.52477146 0.02534189 6.54364574 0.04327282 8.5625 0.0625 C8.5625 0.3925 8.5625 0.7225 8.5625 1.0625 C7.67046875 1.12308594 6.7784375 1.18367187 5.859375 1.24609375 C4.10367188 1.37177734 4.10367188 1.37177734 2.3125 1.5 C1.15234375 1.58121094 -0.0078125 1.66242188 -1.203125 1.74609375 C-4.27080593 1.96434276 -4.27080593 1.96434276 -6.53125 2.59375 C-8.95757483 3.19038725 -11.19293353 3.15782324 -13.6875 3.125 C-14.57953125 3.11597656 -15.4715625 3.10695312 -16.390625 3.09765625 C-17.06609375 3.08605469 -17.7415625 3.07445312 -18.4375 3.0625 C-14.03913451 -1.33586549 -5.91562452 -0.06196867 0 0 Z " fill="#72A38A" transform="translate(220.4375,184.9375)"/>
<path d="M0 0 C3.66824072 1.80077272 7.21925124 3.78067536 10.78125 5.78125 C12.83130842 6.90733843 14.90062404 7.96939726 17 9 C14.27414458 9.75718206 12.58194742 10.20539321 9.875 9.25 C8 8 8 8 6.5625 6.5 C4.5843405 4.60096688 2.56441218 3.90100969 0 3 C0 2.01 0 1.02 0 0 Z " fill="#5B8B78" transform="translate(192,283)"/>
<path d="M0 0 C4.875 1.75 4.875 1.75 6 4 C6.039992 5.99960012 6.04346799 8.00047242 6 10 C5.67 9.01 5.34 8.02 5 7 C2.99983534 5.79117904 2.99983534 5.79117904 1 5 C1 4.34 1 3.68 1 3 C0.01 2.67 -0.98 2.34 -2 2 C-1.34 2 -0.68 2 0 2 C0 1.34 0 0.68 0 0 Z " fill="#70C14B" transform="translate(299,222)"/>
<path d="M0 0 C0.99 0.33 1.98 0.66 3 1 C3.33 1.99 3.66 2.98 4 4 C3.05125 4.0825 2.1025 4.165 1.125 4.25 C-2.10461791 4.65074923 -2.10461791 4.65074923 -3.375 7.0625 C-3.58125 7.701875 -3.7875 8.34125 -4 9 C-4.99 9 -5.98 9 -7 9 C-5.44499019 5.18315774 -2.96404505 2.80804268 0 0 Z " fill="#3B745E" transform="translate(176,202)"/>
<path d="M0 0 C-5.66507011 3.08900201 -10.50857435 5.57664615 -17 6 C-17 5.34 -17 4.68 -17 4 C-13.25 2.875 -13.25 2.875 -11 4 C-11 3.34 -11 2.68 -11 2 C-9.35 2 -7.7 2 -6 2 C-6 1.34 -6 0.68 -6 0 C-2.25 -1.125 -2.25 -1.125 0 0 Z " fill="#5B8A76" transform="translate(253,307)"/>
<path d="M0 0 C1.98 0.495 1.98 0.495 4 1 C4 3.31 4 5.62 4 8 C2.68 8.33 1.36 8.66 0 9 C0.33 7.68 0.66 6.36 1 5 C0.34 4.67 -0.32 4.34 -1 4 C-0.67 2.68 -0.34 1.36 0 0 Z " fill="#3AB406" transform="translate(299,266)"/>
<path d="M0 0 C0.33 0.66 0.66 1.32 1 2 C-3.1196377 3.29243536 -6.66831683 4.26252625 -11 4 C-7.65667474 -0.27945633 -5.29105716 -0.4070044 0 0 Z " fill="#68BC43" transform="translate(342,218)"/>
<path d="M0 0 C5.19209404 -0.21192221 9.126739 0.4087311 14 2 C11.22578757 3.88646445 9.86760546 3.99303187 6.4375 3.8125 C3.14020111 3.03313844 1.96284503 2.65561386 0 0 Z " fill="#407A62" transform="translate(229,186)"/>
<path d="M0 0 C0.66 0.33 1.32 0.66 2 1 C1.3203125 2.890625 1.3203125 2.890625 0 5 C-2.3828125 6.046875 -2.3828125 6.046875 -5.125 6.75 C-6.03507812 6.99234375 -6.94515625 7.2346875 -7.8828125 7.484375 C-8.93082031 7.73960937 -8.93082031 7.73960937 -10 8 C-6.97727468 4.74475735 -3.74281699 2.38179263 0 0 Z " fill="#70C457" transform="translate(329,222)"/>
<path d="M0 0 C4.29 0 8.58 0 13 0 C9 3 9 3 5.9375 2.8125 C3 2 3 2 0 0 Z " fill="#598575" transform="translate(237,210)"/>
<path d="M0 0 C-3.74525799 3.74525799 -7.98270909 3.68909949 -13 4 C-12 2 -12 2 -9.875 0.875 C-6.47608911 -0.15945114 -3.53359114 -0.1385722 0 0 Z M-7 3 C-6.01 3.495 -6.01 3.495 -5 4 C-5.99 4.495 -5.99 4.495 -7 5 C-7 4.34 -7 3.68 -7 3 Z " fill="#67A283" transform="translate(249,287)"/>
<path d="M0 0 C-0.5775 0.268125 -1.155 0.53625 -1.75 0.8125 C-4.06461975 1.93880119 -4.06461975 1.93880119 -6.0625 3.6875 C-6.701875 4.120625 -7.34125 4.55375 -8 5 C-8.99 4.67 -9.98 4.34 -11 4 C-4.45384615 -1.48461538 -4.45384615 -1.48461538 0 0 Z " fill="#39AC0B" transform="translate(328,228)"/>
<path d="M0 0 C0.66 0 1.32 0 2 0 C2 0.66 2 1.32 2 2 C2.66 2.33 3.32 2.66 4 3 C1.69 4.32 -0.62 5.64 -3 7 C-2.38722388 4.03824877 -1.74627478 2.61941217 0 0 Z " fill="#4D8169" transform="translate(193,212)"/>
<path d="M0 0 C-2.55068845 2.35448165 -3.71017358 2.98327924 -7.25 3.1875 C-8.1575 3.125625 -9.065 3.06375 -10 3 C-10 2.34 -10 1.68 -10 1 C-6.61981469 -0.04005702 -3.5219721 -0.08004482 0 0 Z " fill="#0F5235" transform="translate(212,187)"/>
<path d="M0 0 C1.98 0 3.96 0 6 0 C6.33 1.65 6.66 3.3 7 5 C5.68 4.67 4.36 4.34 3 4 C3 3.34 3 2.68 3 2 C2.01 1.67 1.02 1.34 0 1 C0 0.67 0 0.34 0 0 Z " fill="#74C153" transform="translate(312,265)"/>
</svg>
